<mxfile host="app.diagrams.net" agent="Mozilla/5.0 (Macintosh; Intel Mac OS X 10_15_7) AppleWebKit/537.36 (KHTML, like Gecko) Chrome/137.0.0.0 Safari/537.36" version="27.0.9" pages="6">
  <diagram name="Страница — 1" id="W7-dfjUl7TaThwL8vIDV">
    <mxGraphModel dx="976" dy="558" grid="1" gridSize="10" guides="1" tooltips="1" connect="1" arrows="1" fold="1" page="1" pageScale="1" pageWidth="827" pageHeight="1169" math="0" shadow="0">
      <root>
        <mxCell id="0" />
        <mxCell id="1" parent="0" />
        <mxCell id="j27YRT875FW1kfULd9Tp-1" style="edgeStyle=orthogonalEdgeStyle;rounded=0;orthogonalLoop=1;jettySize=auto;html=1;" parent="1" source="j27YRT875FW1kfULd9Tp-2" target="j27YRT875FW1kfULd9Tp-7" edge="1">
          <mxGeometry relative="1" as="geometry" />
        </mxCell>
        <mxCell id="j27YRT875FW1kfULd9Tp-2" value="Начало" style="ellipse;whiteSpace=wrap;html=1;" parent="1" vertex="1">
          <mxGeometry x="260" y="150" width="120" height="60" as="geometry" />
        </mxCell>
        <mxCell id="j27YRT875FW1kfULd9Tp-3" style="edgeStyle=orthogonalEdgeStyle;rounded=0;orthogonalLoop=1;jettySize=auto;html=1;entryX=0.5;entryY=0;entryDx=0;entryDy=0;" parent="1" source="j27YRT875FW1kfULd9Tp-7" target="j27YRT875FW1kfULd9Tp-9" edge="1">
          <mxGeometry relative="1" as="geometry" />
        </mxCell>
        <mxCell id="j27YRT875FW1kfULd9Tp-4" style="edgeStyle=orthogonalEdgeStyle;rounded=0;orthogonalLoop=1;jettySize=auto;html=1;entryX=0.5;entryY=0;entryDx=0;entryDy=0;" parent="1" source="j27YRT875FW1kfULd9Tp-7" target="j27YRT875FW1kfULd9Tp-11" edge="1">
          <mxGeometry relative="1" as="geometry" />
        </mxCell>
        <mxCell id="j27YRT875FW1kfULd9Tp-5" style="edgeStyle=orthogonalEdgeStyle;rounded=0;orthogonalLoop=1;jettySize=auto;html=1;entryX=0.5;entryY=0;entryDx=0;entryDy=0;" parent="1" source="j27YRT875FW1kfULd9Tp-7" target="j27YRT875FW1kfULd9Tp-14" edge="1">
          <mxGeometry relative="1" as="geometry" />
        </mxCell>
        <mxCell id="j27YRT875FW1kfULd9Tp-6" style="edgeStyle=orthogonalEdgeStyle;rounded=0;orthogonalLoop=1;jettySize=auto;html=1;entryX=0.5;entryY=0;entryDx=0;entryDy=0;" parent="1" source="j27YRT875FW1kfULd9Tp-7" target="j27YRT875FW1kfULd9Tp-15" edge="1">
          <mxGeometry relative="1" as="geometry" />
        </mxCell>
        <mxCell id="j27YRT875FW1kfULd9Tp-7" value="Основной экран" style="rounded=1;whiteSpace=wrap;html=1;" parent="1" vertex="1">
          <mxGeometry x="260" y="240" width="120" height="60" as="geometry" />
        </mxCell>
        <mxCell id="j27YRT875FW1kfULd9Tp-8" style="edgeStyle=orthogonalEdgeStyle;rounded=0;orthogonalLoop=1;jettySize=auto;html=1;entryX=0.5;entryY=0;entryDx=0;entryDy=0;" parent="1" source="j27YRT875FW1kfULd9Tp-9" target="j27YRT875FW1kfULd9Tp-12" edge="1">
          <mxGeometry relative="1" as="geometry" />
        </mxCell>
        <mxCell id="j27YRT875FW1kfULd9Tp-9" value="Список задач" style="rounded=1;whiteSpace=wrap;html=1;" parent="1" vertex="1">
          <mxGeometry x="85" y="360" width="120" height="60" as="geometry" />
        </mxCell>
        <mxCell id="o6QJblB1Smc_fNj8Gcau-8" style="edgeStyle=orthogonalEdgeStyle;rounded=0;orthogonalLoop=1;jettySize=auto;html=1;entryX=0.5;entryY=0;entryDx=0;entryDy=0;" parent="1" source="j27YRT875FW1kfULd9Tp-11" target="o6QJblB1Smc_fNj8Gcau-1" edge="1">
          <mxGeometry relative="1" as="geometry" />
        </mxCell>
        <mxCell id="o6QJblB1Smc_fNj8Gcau-12" style="edgeStyle=orthogonalEdgeStyle;rounded=0;orthogonalLoop=1;jettySize=auto;html=1;entryX=0.5;entryY=0;entryDx=0;entryDy=0;" parent="1" source="j27YRT875FW1kfULd9Tp-11" target="o6QJblB1Smc_fNj8Gcau-2" edge="1">
          <mxGeometry relative="1" as="geometry">
            <Array as="points">
              <mxPoint x="430" y="420" />
              <mxPoint x="560" y="420" />
            </Array>
          </mxGeometry>
        </mxCell>
        <mxCell id="o6QJblB1Smc_fNj8Gcau-19" style="edgeStyle=orthogonalEdgeStyle;rounded=0;orthogonalLoop=1;jettySize=auto;html=1;entryX=0.5;entryY=0;entryDx=0;entryDy=0;" parent="1" source="j27YRT875FW1kfULd9Tp-11" target="o6QJblB1Smc_fNj8Gcau-16" edge="1">
          <mxGeometry relative="1" as="geometry">
            <Array as="points">
              <mxPoint x="430" y="420" />
              <mxPoint x="690" y="420" />
            </Array>
          </mxGeometry>
        </mxCell>
        <mxCell id="j27YRT875FW1kfULd9Tp-11" value="Кнопки для управления задачами" style="rounded=1;whiteSpace=wrap;html=1;" parent="1" vertex="1">
          <mxGeometry x="370" y="350" width="120" height="60" as="geometry" />
        </mxCell>
        <mxCell id="j27YRT875FW1kfULd9Tp-12" value="- Название&lt;div&gt;- Статус&lt;/div&gt;&lt;div&gt;- Отметка выполнения&lt;/div&gt;&lt;div&gt;- Категория&lt;/div&gt;&lt;div&gt;- Дата и время&lt;/div&gt;" style="rounded=1;whiteSpace=wrap;html=1;" parent="1" vertex="1">
          <mxGeometry x="70" y="450" width="150" height="100" as="geometry" />
        </mxCell>
        <mxCell id="j27YRT875FW1kfULd9Tp-14" value="Хранение данных:&lt;div&gt;json&lt;/div&gt;&lt;div&gt;Авто-сохранение&lt;/div&gt;" style="rounded=1;whiteSpace=wrap;html=1;" parent="1" vertex="1">
          <mxGeometry x="220" y="585" width="120" height="60" as="geometry" />
        </mxCell>
        <mxCell id="j27YRT875FW1kfULd9Tp-15" value="Экспорт задач в iCalendar" style="rounded=1;whiteSpace=wrap;html=1;" parent="1" vertex="1">
          <mxGeometry x="530" y="350" width="120" height="60" as="geometry" />
        </mxCell>
        <mxCell id="o6QJblB1Smc_fNj8Gcau-9" style="edgeStyle=orthogonalEdgeStyle;rounded=0;orthogonalLoop=1;jettySize=auto;html=1;entryX=0.5;entryY=0;entryDx=0;entryDy=0;" parent="1" source="o6QJblB1Smc_fNj8Gcau-1" target="o6QJblB1Smc_fNj8Gcau-5" edge="1">
          <mxGeometry relative="1" as="geometry" />
        </mxCell>
        <mxCell id="o6QJblB1Smc_fNj8Gcau-1" value="Добавление задачи" style="rounded=1;whiteSpace=wrap;html=1;" parent="1" vertex="1">
          <mxGeometry x="370" y="440" width="120" height="60" as="geometry" />
        </mxCell>
        <mxCell id="o6QJblB1Smc_fNj8Gcau-13" style="edgeStyle=orthogonalEdgeStyle;rounded=0;orthogonalLoop=1;jettySize=auto;html=1;entryX=0.5;entryY=0;entryDx=0;entryDy=0;" parent="1" source="o6QJblB1Smc_fNj8Gcau-2" target="o6QJblB1Smc_fNj8Gcau-3" edge="1">
          <mxGeometry relative="1" as="geometry" />
        </mxCell>
        <mxCell id="o6QJblB1Smc_fNj8Gcau-2" value="Удаление задачи" style="rounded=1;whiteSpace=wrap;html=1;" parent="1" vertex="1">
          <mxGeometry x="500" y="440" width="120" height="60" as="geometry" />
        </mxCell>
        <mxCell id="o6QJblB1Smc_fNj8Gcau-15" style="edgeStyle=orthogonalEdgeStyle;rounded=0;orthogonalLoop=1;jettySize=auto;html=1;entryX=0.5;entryY=0;entryDx=0;entryDy=0;" parent="1" source="o6QJblB1Smc_fNj8Gcau-3" target="o6QJblB1Smc_fNj8Gcau-4" edge="1">
          <mxGeometry relative="1" as="geometry" />
        </mxCell>
        <mxCell id="o6QJblB1Smc_fNj8Gcau-3" value="Выбирает из списка задачу" style="rounded=1;whiteSpace=wrap;html=1;" parent="1" vertex="1">
          <mxGeometry x="500" y="520" width="120" height="60" as="geometry" />
        </mxCell>
        <mxCell id="o6QJblB1Smc_fNj8Gcau-4" value="Нажимает кнопку &quot;Удалить&quot;" style="rounded=1;whiteSpace=wrap;html=1;" parent="1" vertex="1">
          <mxGeometry x="500" y="600" width="120" height="60" as="geometry" />
        </mxCell>
        <mxCell id="o6QJblB1Smc_fNj8Gcau-10" style="edgeStyle=orthogonalEdgeStyle;rounded=0;orthogonalLoop=1;jettySize=auto;html=1;entryX=0.5;entryY=0;entryDx=0;entryDy=0;" parent="1" source="o6QJblB1Smc_fNj8Gcau-5" target="o6QJblB1Smc_fNj8Gcau-6" edge="1">
          <mxGeometry relative="1" as="geometry" />
        </mxCell>
        <mxCell id="o6QJblB1Smc_fNj8Gcau-5" value="Нажимает кнопку &quot;Добавить&quot;" style="rounded=1;whiteSpace=wrap;html=1;" parent="1" vertex="1">
          <mxGeometry x="370" y="520" width="120" height="60" as="geometry" />
        </mxCell>
        <mxCell id="o6QJblB1Smc_fNj8Gcau-11" style="edgeStyle=orthogonalEdgeStyle;rounded=0;orthogonalLoop=1;jettySize=auto;html=1;" parent="1" source="o6QJblB1Smc_fNj8Gcau-6" edge="1">
          <mxGeometry relative="1" as="geometry">
            <mxPoint x="430" y="680" as="targetPoint" />
          </mxGeometry>
        </mxCell>
        <mxCell id="o6QJblB1Smc_fNj8Gcau-6" value="Вводит название, описание, дату" style="rounded=1;whiteSpace=wrap;html=1;" parent="1" vertex="1">
          <mxGeometry x="370" y="600" width="120" height="60" as="geometry" />
        </mxCell>
        <mxCell id="o6QJblB1Smc_fNj8Gcau-7" value="Нажимает кнопку &quot;Сохранить&quot;" style="rounded=1;whiteSpace=wrap;html=1;" parent="1" vertex="1">
          <mxGeometry x="370" y="680" width="120" height="60" as="geometry" />
        </mxCell>
        <mxCell id="o6QJblB1Smc_fNj8Gcau-20" style="edgeStyle=orthogonalEdgeStyle;rounded=0;orthogonalLoop=1;jettySize=auto;html=1;entryX=0.5;entryY=0;entryDx=0;entryDy=0;" parent="1" source="o6QJblB1Smc_fNj8Gcau-16" target="o6QJblB1Smc_fNj8Gcau-17" edge="1">
          <mxGeometry relative="1" as="geometry" />
        </mxCell>
        <mxCell id="o6QJblB1Smc_fNj8Gcau-16" value="Резервное копирование" style="rounded=1;whiteSpace=wrap;html=1;" parent="1" vertex="1">
          <mxGeometry x="630" y="440" width="120" height="60" as="geometry" />
        </mxCell>
        <mxCell id="o6QJblB1Smc_fNj8Gcau-21" style="edgeStyle=orthogonalEdgeStyle;rounded=0;orthogonalLoop=1;jettySize=auto;html=1;entryX=0.5;entryY=0;entryDx=0;entryDy=0;" parent="1" source="o6QJblB1Smc_fNj8Gcau-17" target="o6QJblB1Smc_fNj8Gcau-18" edge="1">
          <mxGeometry relative="1" as="geometry" />
        </mxCell>
        <mxCell id="o6QJblB1Smc_fNj8Gcau-17" value="Нажимает кнопку &quot;Бэкап&quot;" style="rounded=1;whiteSpace=wrap;html=1;" parent="1" vertex="1">
          <mxGeometry x="630" y="520" width="120" height="60" as="geometry" />
        </mxCell>
        <mxCell id="o6QJblB1Smc_fNj8Gcau-18" value="Выбирает папку для сохранения файла" style="rounded=1;whiteSpace=wrap;html=1;" parent="1" vertex="1">
          <mxGeometry x="630" y="600" width="120" height="60" as="geometry" />
        </mxCell>
      </root>
    </mxGraphModel>
  </diagram>
  <diagram name="Страница — 1" id="lD4i7l8Ca72HW-ROGaR9">
    <mxGraphModel dx="1400" dy="839" grid="1" gridSize="10" guides="1" tooltips="1" connect="1" arrows="1" fold="1" page="1" pageScale="1" pageWidth="827" pageHeight="1169" math="0" shadow="0">
      <root>
        <mxCell id="0" />
        <mxCell id="1" parent="0" />
        <mxCell id="Oc5Kqi6DhIM6thQefh6N-5" style="edgeStyle=orthogonalEdgeStyle;rounded=0;orthogonalLoop=1;jettySize=auto;html=1;" parent="1" source="Oc5Kqi6DhIM6thQefh6N-1" target="Oc5Kqi6DhIM6thQefh6N-2" edge="1">
          <mxGeometry relative="1" as="geometry" />
        </mxCell>
        <mxCell id="Oc5Kqi6DhIM6thQefh6N-1" value="Начало" style="ellipse;whiteSpace=wrap;html=1;" parent="1" vertex="1">
          <mxGeometry x="340" y="150" width="120" height="60" as="geometry" />
        </mxCell>
        <mxCell id="Oc5Kqi6DhIM6thQefh6N-7" style="edgeStyle=orthogonalEdgeStyle;rounded=0;orthogonalLoop=1;jettySize=auto;html=1;entryX=0.5;entryY=0;entryDx=0;entryDy=0;" parent="1" source="Oc5Kqi6DhIM6thQefh6N-2" target="Oc5Kqi6DhIM6thQefh6N-6" edge="1">
          <mxGeometry relative="1" as="geometry" />
        </mxCell>
        <mxCell id="Oc5Kqi6DhIM6thQefh6N-9" style="edgeStyle=orthogonalEdgeStyle;rounded=0;orthogonalLoop=1;jettySize=auto;html=1;entryX=0.5;entryY=0;entryDx=0;entryDy=0;" parent="1" source="Oc5Kqi6DhIM6thQefh6N-2" target="Oc5Kqi6DhIM6thQefh6N-8" edge="1">
          <mxGeometry relative="1" as="geometry" />
        </mxCell>
        <mxCell id="Oc5Kqi6DhIM6thQefh6N-15" style="edgeStyle=orthogonalEdgeStyle;rounded=0;orthogonalLoop=1;jettySize=auto;html=1;entryX=0.5;entryY=0;entryDx=0;entryDy=0;" parent="1" source="Oc5Kqi6DhIM6thQefh6N-2" target="Oc5Kqi6DhIM6thQefh6N-14" edge="1">
          <mxGeometry relative="1" as="geometry" />
        </mxCell>
        <mxCell id="Oc5Kqi6DhIM6thQefh6N-17" style="edgeStyle=orthogonalEdgeStyle;rounded=0;orthogonalLoop=1;jettySize=auto;html=1;entryX=0.5;entryY=0;entryDx=0;entryDy=0;" parent="1" source="Oc5Kqi6DhIM6thQefh6N-2" target="Oc5Kqi6DhIM6thQefh6N-16" edge="1">
          <mxGeometry relative="1" as="geometry" />
        </mxCell>
        <mxCell id="Oc5Kqi6DhIM6thQefh6N-2" value="Основной экран" style="rounded=1;whiteSpace=wrap;html=1;" parent="1" vertex="1">
          <mxGeometry x="340" y="240" width="120" height="60" as="geometry" />
        </mxCell>
        <mxCell id="Oc5Kqi6DhIM6thQefh6N-11" style="edgeStyle=orthogonalEdgeStyle;rounded=0;orthogonalLoop=1;jettySize=auto;html=1;entryX=0.5;entryY=0;entryDx=0;entryDy=0;" parent="1" source="Oc5Kqi6DhIM6thQefh6N-6" target="Oc5Kqi6DhIM6thQefh6N-10" edge="1">
          <mxGeometry relative="1" as="geometry" />
        </mxCell>
        <mxCell id="Oc5Kqi6DhIM6thQefh6N-6" value="Список задач" style="rounded=1;whiteSpace=wrap;html=1;" parent="1" vertex="1">
          <mxGeometry x="220" y="350" width="120" height="60" as="geometry" />
        </mxCell>
        <mxCell id="Oc5Kqi6DhIM6thQefh6N-13" style="edgeStyle=orthogonalEdgeStyle;rounded=0;orthogonalLoop=1;jettySize=auto;html=1;entryX=0.5;entryY=0;entryDx=0;entryDy=0;" parent="1" source="Oc5Kqi6DhIM6thQefh6N-8" target="Oc5Kqi6DhIM6thQefh6N-12" edge="1">
          <mxGeometry relative="1" as="geometry" />
        </mxCell>
        <mxCell id="Oc5Kqi6DhIM6thQefh6N-8" value="Кнопки для управления задачами" style="rounded=1;whiteSpace=wrap;html=1;" parent="1" vertex="1">
          <mxGeometry x="450" y="350" width="120" height="60" as="geometry" />
        </mxCell>
        <mxCell id="Oc5Kqi6DhIM6thQefh6N-10" value="- Название&lt;div&gt;- Статус&lt;/div&gt;&lt;div&gt;- Отметка выполнения&lt;/div&gt;&lt;div&gt;- Категория&lt;/div&gt;&lt;div&gt;- Дата и время&lt;/div&gt;" style="rounded=1;whiteSpace=wrap;html=1;" parent="1" vertex="1">
          <mxGeometry x="205" y="440" width="150" height="100" as="geometry" />
        </mxCell>
        <mxCell id="Oc5Kqi6DhIM6thQefh6N-12" value="- Добавить&lt;div&gt;- Удалить&lt;/div&gt;&lt;div&gt;- Изменить статус&lt;/div&gt;&lt;div&gt;- Выполнена&lt;/div&gt;" style="rounded=1;whiteSpace=wrap;html=1;" parent="1" vertex="1">
          <mxGeometry x="435" y="440" width="150" height="100" as="geometry" />
        </mxCell>
        <mxCell id="Oc5Kqi6DhIM6thQefh6N-14" value="Хранение данных:&lt;div&gt;json&lt;/div&gt;&lt;div&gt;Авто-сохранение&lt;/div&gt;" style="rounded=1;whiteSpace=wrap;html=1;" parent="1" vertex="1">
          <mxGeometry x="340" y="585" width="120" height="60" as="geometry" />
        </mxCell>
        <mxCell id="Oc5Kqi6DhIM6thQefh6N-16" value="Экспорт задач в txt" style="rounded=1;whiteSpace=wrap;html=1;" parent="1" vertex="1">
          <mxGeometry x="610" y="350" width="120" height="60" as="geometry" />
        </mxCell>
      </root>
    </mxGraphModel>
  </diagram>
  <diagram name="Страница — 2" id="-IzDnpQQLNR9_dT-kmqL">
    <mxGraphModel dx="1301" dy="756" grid="1" gridSize="10" guides="1" tooltips="1" connect="1" arrows="1" fold="1" page="1" pageScale="1" pageWidth="827" pageHeight="1169" math="0" shadow="0">
      <root>
        <mxCell id="0" />
        <mxCell id="1" parent="0" />
        <mxCell id="oMK6G9Mbc1Q8MmzZmvGb-1" style="edgeStyle=orthogonalEdgeStyle;rounded=0;orthogonalLoop=1;jettySize=auto;html=1;entryX=0.5;entryY=0;entryDx=0;entryDy=0;" parent="1" source="oMK6G9Mbc1Q8MmzZmvGb-2" target="oMK6G9Mbc1Q8MmzZmvGb-5" edge="1">
          <mxGeometry relative="1" as="geometry" />
        </mxCell>
        <mxCell id="oMK6G9Mbc1Q8MmzZmvGb-2" value="Начало" style="ellipse;whiteSpace=wrap;html=1;" parent="1" vertex="1">
          <mxGeometry x="105" y="50" width="120" height="60" as="geometry" />
        </mxCell>
        <mxCell id="oMK6G9Mbc1Q8MmzZmvGb-3" style="edgeStyle=orthogonalEdgeStyle;rounded=0;orthogonalLoop=1;jettySize=auto;html=1;entryX=0.5;entryY=0;entryDx=0;entryDy=0;" parent="1" source="oMK6G9Mbc1Q8MmzZmvGb-5" target="oMK6G9Mbc1Q8MmzZmvGb-7" edge="1">
          <mxGeometry relative="1" as="geometry" />
        </mxCell>
        <mxCell id="oMK6G9Mbc1Q8MmzZmvGb-5" value="Отображение списка задач" style="rounded=1;whiteSpace=wrap;html=1;" parent="1" vertex="1">
          <mxGeometry x="105" y="130" width="120" height="50" as="geometry" />
        </mxCell>
        <mxCell id="ytDQl3qnV6Rmf2I1rh0u-3" style="edgeStyle=orthogonalEdgeStyle;rounded=0;orthogonalLoop=1;jettySize=auto;html=1;entryX=0.5;entryY=0;entryDx=0;entryDy=0;" edge="1" parent="1" source="oMK6G9Mbc1Q8MmzZmvGb-7" target="1jVVcqQNZX-qyJqaA796-1">
          <mxGeometry relative="1" as="geometry" />
        </mxCell>
        <mxCell id="oMK6G9Mbc1Q8MmzZmvGb-7" value="Добавление новой задачи" style="rounded=1;whiteSpace=wrap;html=1;" parent="1" vertex="1">
          <mxGeometry x="105" y="200" width="120" height="50" as="geometry" />
        </mxCell>
        <mxCell id="XrrQcyo6_67cVwTtIZMX-4" style="edgeStyle=orthogonalEdgeStyle;rounded=0;orthogonalLoop=1;jettySize=auto;html=1;entryX=0.5;entryY=0;entryDx=0;entryDy=0;" parent="1" target="XrrQcyo6_67cVwTtIZMX-3" edge="1">
          <mxGeometry relative="1" as="geometry">
            <mxPoint x="170" y="320" as="sourcePoint" />
          </mxGeometry>
        </mxCell>
        <mxCell id="TL8sy-GBxn3QptKQjjqo-17" style="edgeStyle=orthogonalEdgeStyle;rounded=0;orthogonalLoop=1;jettySize=auto;html=1;entryX=0.5;entryY=0;entryDx=0;entryDy=0;" edge="1" parent="1" source="oMK6G9Mbc1Q8MmzZmvGb-15" target="TL8sy-GBxn3QptKQjjqo-16">
          <mxGeometry relative="1" as="geometry" />
        </mxCell>
        <mxCell id="oMK6G9Mbc1Q8MmzZmvGb-15" value="Выбор файла для экспорта" style="rounded=1;whiteSpace=wrap;html=1;" parent="1" vertex="1">
          <mxGeometry x="415" y="110.5" width="120" height="50" as="geometry" />
        </mxCell>
        <mxCell id="oMK6G9Mbc1Q8MmzZmvGb-18" value="Конец" style="ellipse;whiteSpace=wrap;html=1;" parent="1" vertex="1">
          <mxGeometry x="415" y="395" width="120" height="60" as="geometry" />
        </mxCell>
        <mxCell id="TaGGcqDywdi5O218atkt-1" value="" style="strokeWidth=2;html=1;shape=mxgraph.flowchart.annotation_2;align=left;labelPosition=right;pointerEvents=1;" parent="1" vertex="1">
          <mxGeometry x="225" y="115" width="50" height="65" as="geometry" />
        </mxCell>
        <mxCell id="TaGGcqDywdi5O218atkt-5" value="" style="strokeWidth=2;html=1;shape=mxgraph.flowchart.annotation_2;align=left;labelPosition=right;pointerEvents=1;" parent="1" vertex="1">
          <mxGeometry x="535" y="100" width="50" height="75.5" as="geometry" />
        </mxCell>
        <mxCell id="TaGGcqDywdi5O218atkt-6" value="Хранение данных:&lt;div&gt;iCalendar&lt;/div&gt;" style="text;html=1;align=center;verticalAlign=middle;whiteSpace=wrap;rounded=0;" parent="1" vertex="1">
          <mxGeometry x="575" y="105.25" width="60" height="65" as="geometry" />
        </mxCell>
        <mxCell id="XrrQcyo6_67cVwTtIZMX-1" value="Название задачи&lt;div&gt;Доп. информация&lt;/div&gt;&lt;div&gt;Статус&lt;/div&gt;&lt;div&gt;Дата (дедлайн)&lt;/div&gt;" style="text;html=1;align=center;verticalAlign=middle;whiteSpace=wrap;rounded=0;" parent="1" vertex="1">
          <mxGeometry x="245" y="107.5" width="130" height="80" as="geometry" />
        </mxCell>
        <mxCell id="XrrQcyo6_67cVwTtIZMX-6" style="edgeStyle=orthogonalEdgeStyle;rounded=0;orthogonalLoop=1;jettySize=auto;html=1;entryX=0.5;entryY=0;entryDx=0;entryDy=0;" parent="1" target="XrrQcyo6_67cVwTtIZMX-5" edge="1">
          <mxGeometry relative="1" as="geometry">
            <mxPoint x="170" y="390" as="sourcePoint" />
          </mxGeometry>
        </mxCell>
        <mxCell id="TL8sy-GBxn3QptKQjjqo-1" style="edgeStyle=orthogonalEdgeStyle;rounded=0;orthogonalLoop=1;jettySize=auto;html=1;entryX=0.5;entryY=0;entryDx=0;entryDy=0;" edge="1" parent="1" source="1jVVcqQNZX-qyJqaA796-1" target="ytDQl3qnV6Rmf2I1rh0u-5">
          <mxGeometry relative="1" as="geometry" />
        </mxCell>
        <mxCell id="TL8sy-GBxn3QptKQjjqo-4" style="edgeStyle=orthogonalEdgeStyle;rounded=0;orthogonalLoop=1;jettySize=auto;html=1;" edge="1" parent="1" source="1jVVcqQNZX-qyJqaA796-1" target="TL8sy-GBxn3QptKQjjqo-3">
          <mxGeometry relative="1" as="geometry" />
        </mxCell>
        <mxCell id="1jVVcqQNZX-qyJqaA796-1" value="Название обязательное, до 100 симв&lt;div&gt;Доп. информация до 500 симв&lt;/div&gt;&lt;div&gt;Дедлайн не является датой в прошлом&lt;/div&gt;" style="rhombus;whiteSpace=wrap;html=1;fontSize=11;" vertex="1" parent="1">
          <mxGeometry x="80" y="280" width="170" height="90" as="geometry" />
        </mxCell>
        <mxCell id="TL8sy-GBxn3QptKQjjqo-9" style="edgeStyle=orthogonalEdgeStyle;rounded=0;orthogonalLoop=1;jettySize=auto;html=1;entryX=0.5;entryY=0;entryDx=0;entryDy=0;" edge="1" parent="1" source="ytDQl3qnV6Rmf2I1rh0u-5" target="TL8sy-GBxn3QptKQjjqo-8">
          <mxGeometry relative="1" as="geometry" />
        </mxCell>
        <mxCell id="ytDQl3qnV6Rmf2I1rh0u-5" value="Сохранение задачи в хранилище" style="rounded=1;whiteSpace=wrap;html=1;" vertex="1" parent="1">
          <mxGeometry x="105" y="400" width="120" height="50" as="geometry" />
        </mxCell>
        <mxCell id="TL8sy-GBxn3QptKQjjqo-2" value="Да" style="text;html=1;align=center;verticalAlign=middle;whiteSpace=wrap;rounded=0;" vertex="1" parent="1">
          <mxGeometry x="115" y="370" width="60" height="30" as="geometry" />
        </mxCell>
        <mxCell id="TL8sy-GBxn3QptKQjjqo-24" style="edgeStyle=orthogonalEdgeStyle;rounded=0;orthogonalLoop=1;jettySize=auto;html=1;" edge="1" parent="1" source="TL8sy-GBxn3QptKQjjqo-3">
          <mxGeometry relative="1" as="geometry">
            <mxPoint x="165" y="480" as="targetPoint" />
            <Array as="points">
              <mxPoint x="315" y="480" />
            </Array>
          </mxGeometry>
        </mxCell>
        <mxCell id="TL8sy-GBxn3QptKQjjqo-3" value="Показ сообщения об ошибке" style="rounded=1;whiteSpace=wrap;html=1;" vertex="1" parent="1">
          <mxGeometry x="255" y="400" width="120" height="50" as="geometry" />
        </mxCell>
        <mxCell id="TL8sy-GBxn3QptKQjjqo-6" value="A" style="ellipse;whiteSpace=wrap;html=1;" vertex="1" parent="1">
          <mxGeometry x="141" y="640" width="48" height="48" as="geometry" />
        </mxCell>
        <mxCell id="TL8sy-GBxn3QptKQjjqo-12" style="edgeStyle=orthogonalEdgeStyle;rounded=0;orthogonalLoop=1;jettySize=auto;html=1;entryX=0.5;entryY=0;entryDx=0;entryDy=0;" edge="1" parent="1" source="TL8sy-GBxn3QptKQjjqo-8" target="TL8sy-GBxn3QptKQjjqo-11">
          <mxGeometry relative="1" as="geometry" />
        </mxCell>
        <mxCell id="TL8sy-GBxn3QptKQjjqo-8" value="Редактирование задачи" style="rounded=1;whiteSpace=wrap;html=1;" vertex="1" parent="1">
          <mxGeometry x="105" y="500" width="120" height="50" as="geometry" />
        </mxCell>
        <mxCell id="TL8sy-GBxn3QptKQjjqo-13" style="edgeStyle=orthogonalEdgeStyle;rounded=0;orthogonalLoop=1;jettySize=auto;html=1;entryX=0.5;entryY=0;entryDx=0;entryDy=0;" edge="1" parent="1" source="TL8sy-GBxn3QptKQjjqo-11" target="TL8sy-GBxn3QptKQjjqo-6">
          <mxGeometry relative="1" as="geometry" />
        </mxCell>
        <mxCell id="TL8sy-GBxn3QptKQjjqo-11" value="Отметить задачу как выполненную" style="rounded=1;whiteSpace=wrap;html=1;" vertex="1" parent="1">
          <mxGeometry x="105" y="570" width="120" height="50" as="geometry" />
        </mxCell>
        <mxCell id="TL8sy-GBxn3QptKQjjqo-14" value="A" style="ellipse;whiteSpace=wrap;html=1;" vertex="1" parent="1">
          <mxGeometry x="445" y="30" width="48" height="48" as="geometry" />
        </mxCell>
        <mxCell id="TL8sy-GBxn3QptKQjjqo-15" style="edgeStyle=orthogonalEdgeStyle;rounded=0;orthogonalLoop=1;jettySize=auto;html=1;entryX=0.45;entryY=-0.01;entryDx=0;entryDy=0;entryPerimeter=0;" edge="1" parent="1" source="TL8sy-GBxn3QptKQjjqo-14" target="oMK6G9Mbc1Q8MmzZmvGb-15">
          <mxGeometry relative="1" as="geometry" />
        </mxCell>
        <mxCell id="TL8sy-GBxn3QptKQjjqo-22" style="edgeStyle=orthogonalEdgeStyle;rounded=0;orthogonalLoop=1;jettySize=auto;html=1;entryX=0.5;entryY=0;entryDx=0;entryDy=0;" edge="1" parent="1" source="TL8sy-GBxn3QptKQjjqo-16" target="TL8sy-GBxn3QptKQjjqo-20">
          <mxGeometry relative="1" as="geometry" />
        </mxCell>
        <mxCell id="TL8sy-GBxn3QptKQjjqo-16" value="Сохранение резервной копии в файл" style="rounded=1;whiteSpace=wrap;html=1;" vertex="1" parent="1">
          <mxGeometry x="415" y="178" width="120" height="50" as="geometry" />
        </mxCell>
        <mxCell id="TL8sy-GBxn3QptKQjjqo-19" style="edgeStyle=orthogonalEdgeStyle;rounded=0;orthogonalLoop=1;jettySize=auto;html=1;entryX=0.5;entryY=0;entryDx=0;entryDy=0;" edge="1" parent="1" source="TL8sy-GBxn3QptKQjjqo-20" target="TL8sy-GBxn3QptKQjjqo-21">
          <mxGeometry relative="1" as="geometry" />
        </mxCell>
        <mxCell id="TL8sy-GBxn3QptKQjjqo-20" value="Выбор файла для импорта" style="rounded=1;whiteSpace=wrap;html=1;" vertex="1" parent="1">
          <mxGeometry x="415" y="250" width="120" height="50" as="geometry" />
        </mxCell>
        <mxCell id="TL8sy-GBxn3QptKQjjqo-23" style="edgeStyle=orthogonalEdgeStyle;rounded=0;orthogonalLoop=1;jettySize=auto;html=1;entryX=0.5;entryY=0;entryDx=0;entryDy=0;" edge="1" parent="1" source="TL8sy-GBxn3QptKQjjqo-21" target="oMK6G9Mbc1Q8MmzZmvGb-18">
          <mxGeometry relative="1" as="geometry" />
        </mxCell>
        <mxCell id="TL8sy-GBxn3QptKQjjqo-21" value="Сохранение резервной копии в файл" style="rounded=1;whiteSpace=wrap;html=1;" vertex="1" parent="1">
          <mxGeometry x="415" y="317.5" width="120" height="50" as="geometry" />
        </mxCell>
        <mxCell id="TL8sy-GBxn3QptKQjjqo-25" value="Нет" style="text;html=1;align=center;verticalAlign=middle;whiteSpace=wrap;rounded=0;" vertex="1" parent="1">
          <mxGeometry x="245" y="300" width="60" height="30" as="geometry" />
        </mxCell>
      </root>
    </mxGraphModel>
  </diagram>
  <diagram id="WTVSEywdMhyx_FQRehix" name="IDF0">
    <mxGraphModel dx="976" dy="567" grid="1" gridSize="10" guides="1" tooltips="1" connect="1" arrows="1" fold="1" page="1" pageScale="1" pageWidth="827" pageHeight="1169" math="0" shadow="0">
      <root>
        <mxCell id="0" />
        <mxCell id="1" parent="0" />
        <mxCell id="s6gMf_WtCAe_FYDnXnPd-1" value="Название задачи&lt;div&gt;Доп. информация&lt;/div&gt;&lt;div&gt;Статус&lt;/div&gt;&lt;div&gt;Дата (дедлайн)&lt;/div&gt;" style="text;html=1;align=center;verticalAlign=middle;whiteSpace=wrap;rounded=0;" parent="1" vertex="1">
          <mxGeometry x="50" y="150" width="130" height="80" as="geometry" />
        </mxCell>
        <mxCell id="s6gMf_WtCAe_FYDnXnPd-2" value="" style="endArrow=classic;html=1;rounded=0;" parent="1" edge="1">
          <mxGeometry width="50" height="50" relative="1" as="geometry">
            <mxPoint x="40" y="240" as="sourcePoint" />
            <mxPoint x="180" y="240" as="targetPoint" />
          </mxGeometry>
        </mxCell>
        <mxCell id="s6gMf_WtCAe_FYDnXnPd-13" style="edgeStyle=orthogonalEdgeStyle;rounded=0;orthogonalLoop=1;jettySize=auto;html=1;entryX=0;entryY=0.5;entryDx=0;entryDy=0;" parent="1" source="s6gMf_WtCAe_FYDnXnPd-3" target="s6gMf_WtCAe_FYDnXnPd-10" edge="1">
          <mxGeometry relative="1" as="geometry" />
        </mxCell>
        <mxCell id="s6gMf_WtCAe_FYDnXnPd-3" value="Добавление задачи в список" style="rounded=0;whiteSpace=wrap;html=1;" parent="1" vertex="1">
          <mxGeometry x="180" y="210" width="120" height="60" as="geometry" />
        </mxCell>
        <mxCell id="s6gMf_WtCAe_FYDnXnPd-4" value="" style="endArrow=classic;html=1;rounded=0;entryX=0.5;entryY=0;entryDx=0;entryDy=0;" parent="1" target="s6gMf_WtCAe_FYDnXnPd-3" edge="1">
          <mxGeometry width="50" height="50" relative="1" as="geometry">
            <mxPoint x="240" y="120" as="sourcePoint" />
            <mxPoint x="440" y="190" as="targetPoint" />
          </mxGeometry>
        </mxCell>
        <mxCell id="s6gMf_WtCAe_FYDnXnPd-5" value="Название обязательное, до 100 симв&lt;div&gt;Доп. информация до 500 симв&lt;/div&gt;&lt;div&gt;Дедлайн не является датой в прошлом&lt;/div&gt;" style="text;html=1;align=center;verticalAlign=middle;whiteSpace=wrap;rounded=0;" parent="1" vertex="1">
          <mxGeometry x="155" y="50" width="170" height="30" as="geometry" />
        </mxCell>
        <mxCell id="s6gMf_WtCAe_FYDnXnPd-8" value="Информация о задаче" style="text;html=1;align=center;verticalAlign=middle;whiteSpace=wrap;rounded=0;" parent="1" vertex="1">
          <mxGeometry x="310" y="200" width="60" height="30" as="geometry" />
        </mxCell>
        <mxCell id="s6gMf_WtCAe_FYDnXnPd-10" value="Изменение данных в JSON-файле" style="rounded=0;whiteSpace=wrap;html=1;" parent="1" vertex="1">
          <mxGeometry x="380" y="210" width="120" height="60" as="geometry" />
        </mxCell>
        <mxCell id="s6gMf_WtCAe_FYDnXnPd-20" style="edgeStyle=orthogonalEdgeStyle;rounded=0;orthogonalLoop=1;jettySize=auto;html=1;entryX=0;entryY=0.5;entryDx=0;entryDy=0;" parent="1" source="s6gMf_WtCAe_FYDnXnPd-14" target="s6gMf_WtCAe_FYDnXnPd-19" edge="1">
          <mxGeometry relative="1" as="geometry" />
        </mxCell>
        <mxCell id="s6gMf_WtCAe_FYDnXnPd-14" value="Редактирование задачи" style="rounded=0;whiteSpace=wrap;html=1;" parent="1" vertex="1">
          <mxGeometry x="200" y="340" width="120" height="60" as="geometry" />
        </mxCell>
        <mxCell id="s6gMf_WtCAe_FYDnXnPd-16" value="" style="endArrow=none;html=1;rounded=0;entryX=0;entryY=0.5;entryDx=0;entryDy=0;" parent="1" target="s6gMf_WtCAe_FYDnXnPd-14" edge="1">
          <mxGeometry width="50" height="50" relative="1" as="geometry">
            <mxPoint x="150" y="370" as="sourcePoint" />
            <mxPoint x="170" y="370" as="targetPoint" />
          </mxGeometry>
        </mxCell>
        <mxCell id="s6gMf_WtCAe_FYDnXnPd-18" value="Порядковый номер задачи в хранилище" style="text;html=1;align=center;verticalAlign=middle;whiteSpace=wrap;rounded=0;" parent="1" vertex="1">
          <mxGeometry x="70" y="330" width="120" height="30" as="geometry" />
        </mxCell>
        <mxCell id="s6gMf_WtCAe_FYDnXnPd-24" style="edgeStyle=orthogonalEdgeStyle;rounded=0;orthogonalLoop=1;jettySize=auto;html=1;entryX=0;entryY=0.5;entryDx=0;entryDy=0;" parent="1" source="s6gMf_WtCAe_FYDnXnPd-19" target="s6gMf_WtCAe_FYDnXnPd-10" edge="1">
          <mxGeometry relative="1" as="geometry" />
        </mxCell>
        <mxCell id="s6gMf_WtCAe_FYDnXnPd-19" value="Редактирование задачи" style="rounded=0;whiteSpace=wrap;html=1;" parent="1" vertex="1">
          <mxGeometry x="370" y="320" width="120" height="60" as="geometry" />
        </mxCell>
        <mxCell id="s6gMf_WtCAe_FYDnXnPd-21" value="Порядковый номер задачи в хранилище" style="text;html=1;align=center;verticalAlign=middle;whiteSpace=wrap;rounded=0;" parent="1" vertex="1">
          <mxGeometry x="290" y="290" width="80" height="30" as="geometry" />
        </mxCell>
        <mxCell id="s6gMf_WtCAe_FYDnXnPd-25" value="" style="endArrow=classic;html=1;rounded=0;" parent="1" edge="1">
          <mxGeometry width="50" height="50" relative="1" as="geometry">
            <mxPoint x="500" y="239.41" as="sourcePoint" />
            <mxPoint x="820" y="239" as="targetPoint" />
          </mxGeometry>
        </mxCell>
        <mxCell id="s6gMf_WtCAe_FYDnXnPd-26" value="Информация о доступных задачах" style="text;html=1;align=center;verticalAlign=middle;whiteSpace=wrap;rounded=0;" parent="1" vertex="1">
          <mxGeometry x="650" y="200" width="80" height="30" as="geometry" />
        </mxCell>
        <mxCell id="s6gMf_WtCAe_FYDnXnPd-37" style="edgeStyle=orthogonalEdgeStyle;rounded=0;orthogonalLoop=1;jettySize=auto;html=1;entryX=0;entryY=0.5;entryDx=0;entryDy=0;" parent="1" source="s6gMf_WtCAe_FYDnXnPd-28" target="s6gMf_WtCAe_FYDnXnPd-33" edge="1">
          <mxGeometry relative="1" as="geometry" />
        </mxCell>
        <mxCell id="s6gMf_WtCAe_FYDnXnPd-28" value="Экспорт задач" style="rounded=0;whiteSpace=wrap;html=1;" parent="1" vertex="1">
          <mxGeometry x="395" y="62.5" width="90" height="55" as="geometry" />
        </mxCell>
        <mxCell id="s6gMf_WtCAe_FYDnXnPd-30" value="" style="endArrow=none;html=1;rounded=0;entryX=0;entryY=0.5;entryDx=0;entryDy=0;" parent="1" target="s6gMf_WtCAe_FYDnXnPd-28" edge="1">
          <mxGeometry width="50" height="50" relative="1" as="geometry">
            <mxPoint x="340" y="89.66" as="sourcePoint" />
            <mxPoint x="390" y="89.66" as="targetPoint" />
          </mxGeometry>
        </mxCell>
        <mxCell id="s6gMf_WtCAe_FYDnXnPd-31" value="Информация о задачах" style="text;html=1;align=center;verticalAlign=middle;whiteSpace=wrap;rounded=0;" parent="1" vertex="1">
          <mxGeometry x="325" y="55" width="60" height="30" as="geometry" />
        </mxCell>
        <mxCell id="s6gMf_WtCAe_FYDnXnPd-36" style="edgeStyle=orthogonalEdgeStyle;rounded=0;orthogonalLoop=1;jettySize=auto;html=1;entryX=0;entryY=0.5;entryDx=0;entryDy=0;" parent="1" source="s6gMf_WtCAe_FYDnXnPd-33" target="s6gMf_WtCAe_FYDnXnPd-35" edge="1">
          <mxGeometry relative="1" as="geometry" />
        </mxCell>
        <mxCell id="s6gMf_WtCAe_FYDnXnPd-33" value="Выбор места для сохранения" style="rounded=0;whiteSpace=wrap;html=1;" parent="1" vertex="1">
          <mxGeometry x="510" y="62.5" width="100" height="55" as="geometry" />
        </mxCell>
        <mxCell id="s6gMf_WtCAe_FYDnXnPd-35" value="Сохранение в файл iCalendar" style="rounded=0;whiteSpace=wrap;html=1;" parent="1" vertex="1">
          <mxGeometry x="630" y="60" width="120" height="60" as="geometry" />
        </mxCell>
        <mxCell id="s6gMf_WtCAe_FYDnXnPd-38" value="" style="endArrow=classic;html=1;rounded=0;" parent="1" edge="1">
          <mxGeometry width="50" height="50" relative="1" as="geometry">
            <mxPoint x="750" y="89.66" as="sourcePoint" />
            <mxPoint x="810" y="90" as="targetPoint" />
          </mxGeometry>
        </mxCell>
        <mxCell id="s6gMf_WtCAe_FYDnXnPd-40" value="Файл .ical" style="text;html=1;align=center;verticalAlign=middle;whiteSpace=wrap;rounded=0;" parent="1" vertex="1">
          <mxGeometry x="750" y="55" width="60" height="30" as="geometry" />
        </mxCell>
        <mxCell id="s6gMf_WtCAe_FYDnXnPd-42" style="edgeStyle=orthogonalEdgeStyle;rounded=0;orthogonalLoop=1;jettySize=auto;html=1;entryX=0;entryY=0.5;entryDx=0;entryDy=0;" parent="1" source="s6gMf_WtCAe_FYDnXnPd-43" edge="1">
          <mxGeometry relative="1" as="geometry">
            <mxPoint x="432.5" y="160" as="targetPoint" />
          </mxGeometry>
        </mxCell>
        <mxCell id="s6gMf_WtCAe_FYDnXnPd-43" value="Импорт задач" style="rounded=0;whiteSpace=wrap;html=1;" parent="1" vertex="1">
          <mxGeometry x="317.5" y="132.5" width="90" height="55" as="geometry" />
        </mxCell>
        <mxCell id="s6gMf_WtCAe_FYDnXnPd-44" value="" style="endArrow=none;html=1;rounded=0;entryX=0;entryY=0.5;entryDx=0;entryDy=0;" parent="1" target="s6gMf_WtCAe_FYDnXnPd-43" edge="1">
          <mxGeometry width="50" height="50" relative="1" as="geometry">
            <mxPoint x="262.5" y="159.66" as="sourcePoint" />
            <mxPoint x="312.5" y="159.66" as="targetPoint" />
          </mxGeometry>
        </mxCell>
        <mxCell id="s6gMf_WtCAe_FYDnXnPd-51" style="edgeStyle=orthogonalEdgeStyle;rounded=0;orthogonalLoop=1;jettySize=auto;html=1;entryX=0;entryY=0.5;entryDx=0;entryDy=0;" parent="1" source="s6gMf_WtCAe_FYDnXnPd-47" target="s6gMf_WtCAe_FYDnXnPd-10" edge="1">
          <mxGeometry relative="1" as="geometry">
            <Array as="points">
              <mxPoint x="493" y="200" />
              <mxPoint x="360" y="200" />
              <mxPoint x="360" y="240" />
            </Array>
          </mxGeometry>
        </mxCell>
        <mxCell id="s6gMf_WtCAe_FYDnXnPd-47" value="Загрузка данных в хранилище" style="rounded=0;whiteSpace=wrap;html=1;" parent="1" vertex="1">
          <mxGeometry x="432.5" y="132.5" width="120" height="60" as="geometry" />
        </mxCell>
        <mxCell id="s6gMf_WtCAe_FYDnXnPd-50" value="Выбранный файл .ical" style="text;html=1;align=center;verticalAlign=middle;whiteSpace=wrap;rounded=0;" parent="1" vertex="1">
          <mxGeometry x="247.5" y="120" width="60" height="30" as="geometry" />
        </mxCell>
        <mxCell id="s6gMf_WtCAe_FYDnXnPd-52" value="" style="endArrow=none;html=1;rounded=0;" parent="1" edge="1">
          <mxGeometry width="50" height="50" relative="1" as="geometry">
            <mxPoint x="80" y="520" as="sourcePoint" />
            <mxPoint x="80" y="240" as="targetPoint" />
          </mxGeometry>
        </mxCell>
        <mxCell id="s6gMf_WtCAe_FYDnXnPd-53" value="" style="endArrow=none;html=1;rounded=0;" parent="1" edge="1">
          <mxGeometry width="50" height="50" relative="1" as="geometry">
            <mxPoint x="760" y="90" as="sourcePoint" />
            <mxPoint x="760" y="520" as="targetPoint" />
          </mxGeometry>
        </mxCell>
        <mxCell id="s6gMf_WtCAe_FYDnXnPd-54" value="" style="endArrow=none;html=1;rounded=0;" parent="1" edge="1">
          <mxGeometry width="50" height="50" relative="1" as="geometry">
            <mxPoint x="760" y="520" as="sourcePoint" />
            <mxPoint x="80" y="520" as="targetPoint" />
          </mxGeometry>
        </mxCell>
        <mxCell id="s6gMf_WtCAe_FYDnXnPd-55" value="Пользователь" style="text;html=1;align=center;verticalAlign=middle;whiteSpace=wrap;rounded=0;" parent="1" vertex="1">
          <mxGeometry x="354" y="480" width="106" height="30" as="geometry" />
        </mxCell>
      </root>
    </mxGraphModel>
  </diagram>
  <diagram id="Ikkrrtt-rizl911uPQNt" name="Страница — 5">
    <mxGraphModel dx="1281" dy="264" grid="1" gridSize="10" guides="1" tooltips="1" connect="1" arrows="1" fold="1" page="1" pageScale="1" pageWidth="827" pageHeight="1169" math="0" shadow="0">
      <root>
        <mxCell id="0" />
        <mxCell id="1" parent="0" />
        <mxCell id="wgs45UKqdrKjsDAKbmZa-1" value="Управление задачами" style="rounded=0;whiteSpace=wrap;html=1;" parent="1" vertex="1">
          <mxGeometry x="250" y="260" width="120" height="60" as="geometry" />
        </mxCell>
        <mxCell id="wgs45UKqdrKjsDAKbmZa-2" value="" style="endArrow=classic;html=1;rounded=0;entryX=0;entryY=0.25;entryDx=0;entryDy=0;" parent="1" edge="1">
          <mxGeometry width="50" height="50" relative="1" as="geometry">
            <mxPoint x="120" y="270" as="sourcePoint" />
            <mxPoint x="250" y="270" as="targetPoint" />
          </mxGeometry>
        </mxCell>
        <mxCell id="wgs45UKqdrKjsDAKbmZa-3" value="Информация о задачах" style="text;html=1;align=center;verticalAlign=middle;whiteSpace=wrap;rounded=0;" parent="1" vertex="1">
          <mxGeometry x="260" y="150" width="100" height="30" as="geometry" />
        </mxCell>
        <mxCell id="wgs45UKqdrKjsDAKbmZa-5" value="" style="endArrow=classic;html=1;rounded=0;entryX=0.25;entryY=1;entryDx=0;entryDy=0;" parent="1" edge="1">
          <mxGeometry width="50" height="50" relative="1" as="geometry">
            <mxPoint x="309.76" y="400" as="sourcePoint" />
            <mxPoint x="309.76" y="320" as="targetPoint" />
          </mxGeometry>
        </mxCell>
        <mxCell id="wgs45UKqdrKjsDAKbmZa-6" value="Пользователь" style="text;html=1;align=center;verticalAlign=middle;whiteSpace=wrap;rounded=0;" parent="1" vertex="1">
          <mxGeometry x="266.5" y="390" width="87" height="30" as="geometry" />
        </mxCell>
        <mxCell id="wgs45UKqdrKjsDAKbmZa-7" value="" style="endArrow=classic;html=1;rounded=0;entryX=0;entryY=0.25;entryDx=0;entryDy=0;" parent="1" edge="1">
          <mxGeometry width="50" height="50" relative="1" as="geometry">
            <mxPoint x="370" y="310" as="sourcePoint" />
            <mxPoint x="500" y="310" as="targetPoint" />
          </mxGeometry>
        </mxCell>
        <mxCell id="wgs45UKqdrKjsDAKbmZa-8" value="Информация о доступных задачах" style="text;html=1;align=center;verticalAlign=middle;whiteSpace=wrap;rounded=0;" parent="1" vertex="1">
          <mxGeometry x="380" y="320" width="100" height="30" as="geometry" />
        </mxCell>
        <mxCell id="wgs45UKqdrKjsDAKbmZa-9" value="" style="endArrow=classic;html=1;rounded=0;entryX=0;entryY=0.25;entryDx=0;entryDy=0;" parent="1" edge="1">
          <mxGeometry width="50" height="50" relative="1" as="geometry">
            <mxPoint x="370" y="270" as="sourcePoint" />
            <mxPoint x="500" y="270" as="targetPoint" />
          </mxGeometry>
        </mxCell>
        <mxCell id="wgs45UKqdrKjsDAKbmZa-10" value="Файл iCal" style="text;html=1;align=center;verticalAlign=middle;whiteSpace=wrap;rounded=0;" parent="1" vertex="1">
          <mxGeometry x="380" y="240" width="100" height="30" as="geometry" />
        </mxCell>
        <mxCell id="wgs45UKqdrKjsDAKbmZa-11" value="" style="endArrow=classic;html=1;rounded=0;entryX=0.242;entryY=-0.056;entryDx=0;entryDy=0;entryPerimeter=0;" parent="1" edge="1">
          <mxGeometry width="50" height="50" relative="1" as="geometry">
            <mxPoint x="309.76" y="183.36" as="sourcePoint" />
            <mxPoint x="309.79999999999995" y="260" as="targetPoint" />
          </mxGeometry>
        </mxCell>
        <mxCell id="zgav7VuvqgpBy0krhATn-1" value="Название задачи&lt;div&gt;Доп. информация&lt;/div&gt;&lt;div&gt;Статус&lt;/div&gt;&lt;div&gt;Дата (дедлайн)&lt;/div&gt;" style="text;html=1;align=center;verticalAlign=middle;whiteSpace=wrap;rounded=0;" parent="1" vertex="1">
          <mxGeometry x="110" y="190" width="130" height="80" as="geometry" />
        </mxCell>
        <mxCell id="aG4uEPh53JUizBU7PeHN-2" value="" style="endArrow=classic;html=1;rounded=0;entryX=0;entryY=0.25;entryDx=0;entryDy=0;" edge="1" parent="1">
          <mxGeometry width="50" height="50" relative="1" as="geometry">
            <mxPoint x="120" y="289.77" as="sourcePoint" />
            <mxPoint x="250" y="289.77" as="targetPoint" />
          </mxGeometry>
        </mxCell>
        <mxCell id="aG4uEPh53JUizBU7PeHN-3" value="Порядковый номер задачи в хранилище" style="text;html=1;align=center;verticalAlign=middle;whiteSpace=wrap;rounded=0;" vertex="1" parent="1">
          <mxGeometry x="-10" y="270" width="130" height="40" as="geometry" />
        </mxCell>
        <mxCell id="aG4uEPh53JUizBU7PeHN-4" value="" style="endArrow=classic;html=1;rounded=0;entryX=0;entryY=0.25;entryDx=0;entryDy=0;" edge="1" parent="1">
          <mxGeometry width="50" height="50" relative="1" as="geometry">
            <mxPoint x="120" y="309.53" as="sourcePoint" />
            <mxPoint x="250" y="309.53" as="targetPoint" />
          </mxGeometry>
        </mxCell>
        <mxCell id="aG4uEPh53JUizBU7PeHN-5" value="Выбранный файл .ical" style="text;html=1;align=center;verticalAlign=middle;whiteSpace=wrap;rounded=0;" vertex="1" parent="1">
          <mxGeometry x="110" y="305" width="130" height="40" as="geometry" />
        </mxCell>
      </root>
    </mxGraphModel>
  </diagram>
  <diagram id="Pzq61l6mLgRnKX9e8bW7" name="Страница — 6">
    <mxGraphModel dx="976" dy="567" grid="1" gridSize="10" guides="1" tooltips="1" connect="1" arrows="1" fold="1" page="1" pageScale="1" pageWidth="827" pageHeight="1169" math="0" shadow="0">
      <root>
        <mxCell id="0" />
        <mxCell id="1" parent="0" />
        <mxCell id="hbi6dXxwXXTXGjTGPqgK-1" style="edgeStyle=orthogonalEdgeStyle;rounded=0;orthogonalLoop=1;jettySize=auto;html=1;entryX=0.5;entryY=0;entryDx=0;entryDy=0;" edge="1" parent="1" source="hbi6dXxwXXTXGjTGPqgK-2" target="hbi6dXxwXXTXGjTGPqgK-4">
          <mxGeometry relative="1" as="geometry" />
        </mxCell>
        <mxCell id="hbi6dXxwXXTXGjTGPqgK-2" value="Начало" style="ellipse;whiteSpace=wrap;html=1;" vertex="1" parent="1">
          <mxGeometry x="225" y="240" width="120" height="60" as="geometry" />
        </mxCell>
        <mxCell id="hbi6dXxwXXTXGjTGPqgK-3" style="edgeStyle=orthogonalEdgeStyle;rounded=0;orthogonalLoop=1;jettySize=auto;html=1;entryX=0.5;entryY=0;entryDx=0;entryDy=0;" edge="1" parent="1" source="hbi6dXxwXXTXGjTGPqgK-4" target="hbi6dXxwXXTXGjTGPqgK-6">
          <mxGeometry relative="1" as="geometry" />
        </mxCell>
        <mxCell id="hbi6dXxwXXTXGjTGPqgK-4" value="Отображение списка задач" style="rounded=1;whiteSpace=wrap;html=1;" vertex="1" parent="1">
          <mxGeometry x="225" y="320" width="120" height="50" as="geometry" />
        </mxCell>
        <mxCell id="hbi6dXxwXXTXGjTGPqgK-5" style="edgeStyle=orthogonalEdgeStyle;rounded=0;orthogonalLoop=1;jettySize=auto;html=1;entryX=0.5;entryY=0;entryDx=0;entryDy=0;" edge="1" parent="1" source="hbi6dXxwXXTXGjTGPqgK-6" target="hbi6dXxwXXTXGjTGPqgK-16">
          <mxGeometry relative="1" as="geometry" />
        </mxCell>
        <mxCell id="hbi6dXxwXXTXGjTGPqgK-6" value="Добавление новой задачи" style="rounded=1;whiteSpace=wrap;html=1;" vertex="1" parent="1">
          <mxGeometry x="225" y="390" width="120" height="50" as="geometry" />
        </mxCell>
        <mxCell id="hbi6dXxwXXTXGjTGPqgK-7" style="edgeStyle=orthogonalEdgeStyle;rounded=0;orthogonalLoop=1;jettySize=auto;html=1;entryX=0.5;entryY=0;entryDx=0;entryDy=0;" edge="1" parent="1" source="hbi6dXxwXXTXGjTGPqgK-8" target="hbi6dXxwXXTXGjTGPqgK-30">
          <mxGeometry relative="1" as="geometry" />
        </mxCell>
        <mxCell id="hbi6dXxwXXTXGjTGPqgK-8" value="Выбор файла для экспорта" style="rounded=1;whiteSpace=wrap;html=1;" vertex="1" parent="1">
          <mxGeometry x="535" y="300.5" width="120" height="50" as="geometry" />
        </mxCell>
        <mxCell id="hbi6dXxwXXTXGjTGPqgK-9" value="Конец" style="ellipse;whiteSpace=wrap;html=1;" vertex="1" parent="1">
          <mxGeometry x="535" y="585" width="120" height="60" as="geometry" />
        </mxCell>
        <mxCell id="hbi6dXxwXXTXGjTGPqgK-10" value="" style="strokeWidth=2;html=1;shape=mxgraph.flowchart.annotation_2;align=left;labelPosition=right;pointerEvents=1;" vertex="1" parent="1">
          <mxGeometry x="345" y="305" width="50" height="65" as="geometry" />
        </mxCell>
        <mxCell id="hbi6dXxwXXTXGjTGPqgK-11" value="" style="strokeWidth=2;html=1;shape=mxgraph.flowchart.annotation_2;align=left;labelPosition=right;pointerEvents=1;" vertex="1" parent="1">
          <mxGeometry x="655" y="290" width="50" height="75.5" as="geometry" />
        </mxCell>
        <mxCell id="hbi6dXxwXXTXGjTGPqgK-12" value="Хранение данных:&lt;div&gt;iCalendar&lt;/div&gt;" style="text;html=1;align=center;verticalAlign=middle;whiteSpace=wrap;rounded=0;" vertex="1" parent="1">
          <mxGeometry x="695" y="295.25" width="60" height="65" as="geometry" />
        </mxCell>
        <mxCell id="hbi6dXxwXXTXGjTGPqgK-13" value="Название задачи&lt;div&gt;Доп. информация&lt;/div&gt;&lt;div&gt;Статус&lt;/div&gt;&lt;div&gt;Дата (дедлайн)&lt;/div&gt;" style="text;html=1;align=center;verticalAlign=middle;whiteSpace=wrap;rounded=0;" vertex="1" parent="1">
          <mxGeometry x="365" y="297.5" width="130" height="80" as="geometry" />
        </mxCell>
        <mxCell id="hbi6dXxwXXTXGjTGPqgK-14" style="edgeStyle=orthogonalEdgeStyle;rounded=0;orthogonalLoop=1;jettySize=auto;html=1;entryX=0.5;entryY=0;entryDx=0;entryDy=0;" edge="1" parent="1" source="hbi6dXxwXXTXGjTGPqgK-16" target="hbi6dXxwXXTXGjTGPqgK-18">
          <mxGeometry relative="1" as="geometry" />
        </mxCell>
        <mxCell id="hbi6dXxwXXTXGjTGPqgK-15" style="edgeStyle=orthogonalEdgeStyle;rounded=0;orthogonalLoop=1;jettySize=auto;html=1;" edge="1" parent="1" source="hbi6dXxwXXTXGjTGPqgK-16" target="hbi6dXxwXXTXGjTGPqgK-21">
          <mxGeometry relative="1" as="geometry" />
        </mxCell>
        <mxCell id="hbi6dXxwXXTXGjTGPqgK-16" value="Название обязательное, до 100 симв&lt;div&gt;Доп. информация до 500 симв&lt;/div&gt;&lt;div&gt;Дедлайн не является датой в прошлом&lt;/div&gt;" style="rhombus;whiteSpace=wrap;html=1;fontSize=11;" vertex="1" parent="1">
          <mxGeometry x="200" y="470" width="170" height="90" as="geometry" />
        </mxCell>
        <mxCell id="hbi6dXxwXXTXGjTGPqgK-17" style="edgeStyle=orthogonalEdgeStyle;rounded=0;orthogonalLoop=1;jettySize=auto;html=1;entryX=0.5;entryY=0;entryDx=0;entryDy=0;" edge="1" parent="1" source="hbi6dXxwXXTXGjTGPqgK-18" target="hbi6dXxwXXTXGjTGPqgK-24">
          <mxGeometry relative="1" as="geometry" />
        </mxCell>
        <mxCell id="hbi6dXxwXXTXGjTGPqgK-18" value="Сохранение задачи в хранилище" style="rounded=1;whiteSpace=wrap;html=1;" vertex="1" parent="1">
          <mxGeometry x="225" y="590" width="120" height="50" as="geometry" />
        </mxCell>
        <mxCell id="hbi6dXxwXXTXGjTGPqgK-19" value="Да" style="text;html=1;align=center;verticalAlign=middle;whiteSpace=wrap;rounded=0;" vertex="1" parent="1">
          <mxGeometry x="235" y="560" width="60" height="30" as="geometry" />
        </mxCell>
        <mxCell id="hbi6dXxwXXTXGjTGPqgK-20" style="edgeStyle=orthogonalEdgeStyle;rounded=0;orthogonalLoop=1;jettySize=auto;html=1;" edge="1" parent="1" source="hbi6dXxwXXTXGjTGPqgK-21">
          <mxGeometry relative="1" as="geometry">
            <mxPoint x="285" y="670" as="targetPoint" />
            <Array as="points">
              <mxPoint x="435" y="670" />
            </Array>
          </mxGeometry>
        </mxCell>
        <mxCell id="hbi6dXxwXXTXGjTGPqgK-21" value="Показ сообщения об ошибке" style="rounded=1;whiteSpace=wrap;html=1;" vertex="1" parent="1">
          <mxGeometry x="375" y="590" width="120" height="50" as="geometry" />
        </mxCell>
        <mxCell id="hbi6dXxwXXTXGjTGPqgK-22" value="A" style="ellipse;whiteSpace=wrap;html=1;" vertex="1" parent="1">
          <mxGeometry x="261" y="830" width="48" height="48" as="geometry" />
        </mxCell>
        <mxCell id="hbi6dXxwXXTXGjTGPqgK-23" style="edgeStyle=orthogonalEdgeStyle;rounded=0;orthogonalLoop=1;jettySize=auto;html=1;entryX=0.5;entryY=0;entryDx=0;entryDy=0;" edge="1" parent="1" source="hbi6dXxwXXTXGjTGPqgK-24" target="hbi6dXxwXXTXGjTGPqgK-26">
          <mxGeometry relative="1" as="geometry" />
        </mxCell>
        <mxCell id="hbi6dXxwXXTXGjTGPqgK-24" value="Редактирование задачи" style="rounded=1;whiteSpace=wrap;html=1;" vertex="1" parent="1">
          <mxGeometry x="225" y="690" width="120" height="50" as="geometry" />
        </mxCell>
        <mxCell id="hbi6dXxwXXTXGjTGPqgK-25" style="edgeStyle=orthogonalEdgeStyle;rounded=0;orthogonalLoop=1;jettySize=auto;html=1;entryX=0.5;entryY=0;entryDx=0;entryDy=0;" edge="1" parent="1" source="hbi6dXxwXXTXGjTGPqgK-26" target="hbi6dXxwXXTXGjTGPqgK-22">
          <mxGeometry relative="1" as="geometry" />
        </mxCell>
        <mxCell id="hbi6dXxwXXTXGjTGPqgK-26" value="Отметить задачу как выполненную" style="rounded=1;whiteSpace=wrap;html=1;" vertex="1" parent="1">
          <mxGeometry x="225" y="760" width="120" height="50" as="geometry" />
        </mxCell>
        <mxCell id="hbi6dXxwXXTXGjTGPqgK-27" value="A" style="ellipse;whiteSpace=wrap;html=1;" vertex="1" parent="1">
          <mxGeometry x="565" y="220" width="48" height="48" as="geometry" />
        </mxCell>
        <mxCell id="hbi6dXxwXXTXGjTGPqgK-28" style="edgeStyle=orthogonalEdgeStyle;rounded=0;orthogonalLoop=1;jettySize=auto;html=1;entryX=0.45;entryY=-0.01;entryDx=0;entryDy=0;entryPerimeter=0;" edge="1" parent="1" source="hbi6dXxwXXTXGjTGPqgK-27" target="hbi6dXxwXXTXGjTGPqgK-8">
          <mxGeometry relative="1" as="geometry" />
        </mxCell>
        <mxCell id="hbi6dXxwXXTXGjTGPqgK-29" style="edgeStyle=orthogonalEdgeStyle;rounded=0;orthogonalLoop=1;jettySize=auto;html=1;entryX=0.5;entryY=0;entryDx=0;entryDy=0;" edge="1" parent="1" source="hbi6dXxwXXTXGjTGPqgK-30" target="hbi6dXxwXXTXGjTGPqgK-32">
          <mxGeometry relative="1" as="geometry" />
        </mxCell>
        <mxCell id="hbi6dXxwXXTXGjTGPqgK-30" value="Сохранение резервной копии в файл" style="rounded=1;whiteSpace=wrap;html=1;" vertex="1" parent="1">
          <mxGeometry x="535" y="368" width="120" height="50" as="geometry" />
        </mxCell>
        <mxCell id="hbi6dXxwXXTXGjTGPqgK-31" style="edgeStyle=orthogonalEdgeStyle;rounded=0;orthogonalLoop=1;jettySize=auto;html=1;entryX=0.5;entryY=0;entryDx=0;entryDy=0;" edge="1" parent="1" source="hbi6dXxwXXTXGjTGPqgK-32" target="hbi6dXxwXXTXGjTGPqgK-34">
          <mxGeometry relative="1" as="geometry" />
        </mxCell>
        <mxCell id="hbi6dXxwXXTXGjTGPqgK-32" value="Выбор файла для импорта" style="rounded=1;whiteSpace=wrap;html=1;" vertex="1" parent="1">
          <mxGeometry x="535" y="440" width="120" height="50" as="geometry" />
        </mxCell>
        <mxCell id="hbi6dXxwXXTXGjTGPqgK-33" style="edgeStyle=orthogonalEdgeStyle;rounded=0;orthogonalLoop=1;jettySize=auto;html=1;entryX=0.5;entryY=0;entryDx=0;entryDy=0;" edge="1" parent="1" source="hbi6dXxwXXTXGjTGPqgK-34" target="hbi6dXxwXXTXGjTGPqgK-9">
          <mxGeometry relative="1" as="geometry" />
        </mxCell>
        <mxCell id="hbi6dXxwXXTXGjTGPqgK-34" value="Сохранение резервной копии в файл" style="rounded=1;whiteSpace=wrap;html=1;" vertex="1" parent="1">
          <mxGeometry x="535" y="507.5" width="120" height="50" as="geometry" />
        </mxCell>
        <mxCell id="hbi6dXxwXXTXGjTGPqgK-35" value="Нет" style="text;html=1;align=center;verticalAlign=middle;whiteSpace=wrap;rounded=0;" vertex="1" parent="1">
          <mxGeometry x="365" y="490" width="60" height="30" as="geometry" />
        </mxCell>
        <mxCell id="hbi6dXxwXXTXGjTGPqgK-39" style="edgeStyle=orthogonalEdgeStyle;rounded=0;orthogonalLoop=1;jettySize=auto;html=1;entryX=0.5;entryY=0;entryDx=0;entryDy=0;" edge="1" parent="1" source="hbi6dXxwXXTXGjTGPqgK-36" target="hbi6dXxwXXTXGjTGPqgK-37">
          <mxGeometry relative="1" as="geometry" />
        </mxCell>
        <mxCell id="hbi6dXxwXXTXGjTGPqgK-36" value="Начало" style="ellipse;whiteSpace=wrap;html=1;" vertex="1" parent="1">
          <mxGeometry x="1080" y="162.5" width="120" height="60" as="geometry" />
        </mxCell>
        <mxCell id="hbi6dXxwXXTXGjTGPqgK-46" style="edgeStyle=orthogonalEdgeStyle;rounded=0;orthogonalLoop=1;jettySize=auto;html=1;entryX=0.5;entryY=0;entryDx=0;entryDy=0;" edge="1" parent="1" source="hbi6dXxwXXTXGjTGPqgK-37" target="hbi6dXxwXXTXGjTGPqgK-41">
          <mxGeometry relative="1" as="geometry">
            <Array as="points">
              <mxPoint x="1140" y="320" />
              <mxPoint x="880" y="320" />
            </Array>
          </mxGeometry>
        </mxCell>
        <mxCell id="hbi6dXxwXXTXGjTGPqgK-47" style="edgeStyle=orthogonalEdgeStyle;rounded=0;orthogonalLoop=1;jettySize=auto;html=1;entryX=0.5;entryY=0;entryDx=0;entryDy=0;" edge="1" parent="1" source="hbi6dXxwXXTXGjTGPqgK-37" target="hbi6dXxwXXTXGjTGPqgK-42">
          <mxGeometry relative="1" as="geometry">
            <Array as="points">
              <mxPoint x="1140" y="320" />
              <mxPoint x="1010" y="320" />
            </Array>
          </mxGeometry>
        </mxCell>
        <mxCell id="hbi6dXxwXXTXGjTGPqgK-48" style="edgeStyle=orthogonalEdgeStyle;rounded=0;orthogonalLoop=1;jettySize=auto;html=1;entryX=0.5;entryY=0;entryDx=0;entryDy=0;" edge="1" parent="1" source="hbi6dXxwXXTXGjTGPqgK-37" target="hbi6dXxwXXTXGjTGPqgK-43">
          <mxGeometry relative="1" as="geometry" />
        </mxCell>
        <mxCell id="hbi6dXxwXXTXGjTGPqgK-49" style="edgeStyle=orthogonalEdgeStyle;rounded=0;orthogonalLoop=1;jettySize=auto;html=1;" edge="1" parent="1" source="hbi6dXxwXXTXGjTGPqgK-37" target="hbi6dXxwXXTXGjTGPqgK-44">
          <mxGeometry relative="1" as="geometry">
            <Array as="points">
              <mxPoint x="1140" y="320" />
              <mxPoint x="1270" y="320" />
            </Array>
          </mxGeometry>
        </mxCell>
        <mxCell id="hbi6dXxwXXTXGjTGPqgK-50" style="edgeStyle=orthogonalEdgeStyle;rounded=0;orthogonalLoop=1;jettySize=auto;html=1;" edge="1" parent="1" source="hbi6dXxwXXTXGjTGPqgK-37" target="hbi6dXxwXXTXGjTGPqgK-45">
          <mxGeometry relative="1" as="geometry">
            <Array as="points">
              <mxPoint x="1140" y="320" />
              <mxPoint x="1400" y="320" />
            </Array>
          </mxGeometry>
        </mxCell>
        <mxCell id="hbi6dXxwXXTXGjTGPqgK-37" value="Отобразить список задач" style="rounded=1;whiteSpace=wrap;html=1;" vertex="1" parent="1">
          <mxGeometry x="1080" y="255" width="120" height="50" as="geometry" />
        </mxCell>
        <mxCell id="hbi6dXxwXXTXGjTGPqgK-38" value="Название задачи&lt;div&gt;Доп. информация&lt;/div&gt;&lt;div&gt;Статус&lt;/div&gt;&lt;div&gt;Дата (дедлайн)&lt;/div&gt;" style="text;html=1;align=center;verticalAlign=middle;whiteSpace=wrap;rounded=0;" vertex="1" parent="1">
          <mxGeometry x="1220" y="240" width="130" height="80" as="geometry" />
        </mxCell>
        <mxCell id="hbi6dXxwXXTXGjTGPqgK-40" value="" style="strokeWidth=2;html=1;shape=mxgraph.flowchart.annotation_2;align=left;labelPosition=right;pointerEvents=1;" vertex="1" parent="1">
          <mxGeometry x="1200" y="250.5" width="50" height="65" as="geometry" />
        </mxCell>
        <mxCell id="hbi6dXxwXXTXGjTGPqgK-55" style="edgeStyle=orthogonalEdgeStyle;rounded=0;orthogonalLoop=1;jettySize=auto;html=1;entryX=0.5;entryY=0;entryDx=0;entryDy=0;" edge="1" parent="1" source="hbi6dXxwXXTXGjTGPqgK-41" target="hbi6dXxwXXTXGjTGPqgK-52">
          <mxGeometry relative="1" as="geometry">
            <mxPoint x="1140" y="429.9999999999999" as="targetPoint" />
            <Array as="points">
              <mxPoint x="880" y="420" />
              <mxPoint x="1141" y="420" />
              <mxPoint x="1141" y="430" />
            </Array>
          </mxGeometry>
        </mxCell>
        <mxCell id="hbi6dXxwXXTXGjTGPqgK-41" value="Добавить новую задачу" style="rounded=1;whiteSpace=wrap;html=1;" vertex="1" parent="1">
          <mxGeometry x="820" y="350.5" width="120" height="50" as="geometry" />
        </mxCell>
        <mxCell id="hbi6dXxwXXTXGjTGPqgK-54" style="edgeStyle=orthogonalEdgeStyle;rounded=0;orthogonalLoop=1;jettySize=auto;html=1;" edge="1" parent="1" source="hbi6dXxwXXTXGjTGPqgK-42" target="hbi6dXxwXXTXGjTGPqgK-52">
          <mxGeometry relative="1" as="geometry">
            <Array as="points">
              <mxPoint x="1000" y="420" />
              <mxPoint x="1140" y="420" />
            </Array>
          </mxGeometry>
        </mxCell>
        <mxCell id="hbi6dXxwXXTXGjTGPqgK-42" value="Отредактировать задачу" style="rounded=1;whiteSpace=wrap;html=1;" vertex="1" parent="1">
          <mxGeometry x="950" y="350" width="120" height="50" as="geometry" />
        </mxCell>
        <mxCell id="hbi6dXxwXXTXGjTGPqgK-53" style="edgeStyle=orthogonalEdgeStyle;rounded=0;orthogonalLoop=1;jettySize=auto;html=1;" edge="1" parent="1" source="hbi6dXxwXXTXGjTGPqgK-43" target="hbi6dXxwXXTXGjTGPqgK-52">
          <mxGeometry relative="1" as="geometry" />
        </mxCell>
        <mxCell id="hbi6dXxwXXTXGjTGPqgK-43" value="Отметить задачу как выполненную" style="rounded=1;whiteSpace=wrap;html=1;" vertex="1" parent="1">
          <mxGeometry x="1080" y="350" width="120" height="50" as="geometry" />
        </mxCell>
        <mxCell id="hbi6dXxwXXTXGjTGPqgK-56" style="edgeStyle=orthogonalEdgeStyle;rounded=0;orthogonalLoop=1;jettySize=auto;html=1;" edge="1" parent="1" source="hbi6dXxwXXTXGjTGPqgK-44">
          <mxGeometry relative="1" as="geometry">
            <mxPoint x="1140" y="430" as="targetPoint" />
            <Array as="points">
              <mxPoint x="1270" y="420" />
            </Array>
          </mxGeometry>
        </mxCell>
        <mxCell id="hbi6dXxwXXTXGjTGPqgK-44" value="Экспортировать задачи в файл iCalendar" style="rounded=1;whiteSpace=wrap;html=1;" vertex="1" parent="1">
          <mxGeometry x="1210" y="350.5" width="120" height="50" as="geometry" />
        </mxCell>
        <mxCell id="hbi6dXxwXXTXGjTGPqgK-57" style="edgeStyle=orthogonalEdgeStyle;rounded=0;orthogonalLoop=1;jettySize=auto;html=1;entryX=0.5;entryY=0;entryDx=0;entryDy=0;" edge="1" parent="1" source="hbi6dXxwXXTXGjTGPqgK-45" target="hbi6dXxwXXTXGjTGPqgK-52">
          <mxGeometry relative="1" as="geometry">
            <Array as="points">
              <mxPoint x="1400" y="420" />
              <mxPoint x="1140" y="420" />
            </Array>
          </mxGeometry>
        </mxCell>
        <mxCell id="hbi6dXxwXXTXGjTGPqgK-45" value="Импортировать задачи из файла iCalendar" style="rounded=1;whiteSpace=wrap;html=1;" vertex="1" parent="1">
          <mxGeometry x="1340" y="350" width="120" height="50" as="geometry" />
        </mxCell>
        <mxCell id="hbi6dXxwXXTXGjTGPqgK-51" value="Конец" style="ellipse;whiteSpace=wrap;html=1;" vertex="1" parent="1">
          <mxGeometry x="1080" y="502.5" width="120" height="60" as="geometry" />
        </mxCell>
        <mxCell id="hbi6dXxwXXTXGjTGPqgK-58" style="edgeStyle=orthogonalEdgeStyle;rounded=0;orthogonalLoop=1;jettySize=auto;html=1;entryX=0.5;entryY=0;entryDx=0;entryDy=0;" edge="1" parent="1" source="hbi6dXxwXXTXGjTGPqgK-52" target="hbi6dXxwXXTXGjTGPqgK-51">
          <mxGeometry relative="1" as="geometry" />
        </mxCell>
        <mxCell id="hbi6dXxwXXTXGjTGPqgK-52" value="Сохранить задачи при завершении работы" style="rounded=1;whiteSpace=wrap;html=1;" vertex="1" parent="1">
          <mxGeometry x="1080" y="430" width="120" height="50" as="geometry" />
        </mxCell>
        <mxCell id="hbi6dXxwXXTXGjTGPqgK-64" style="edgeStyle=orthogonalEdgeStyle;rounded=0;orthogonalLoop=1;jettySize=auto;html=1;" edge="1" parent="1" source="hbi6dXxwXXTXGjTGPqgK-59">
          <mxGeometry relative="1" as="geometry">
            <mxPoint x="1640" y="230" as="targetPoint" />
          </mxGeometry>
        </mxCell>
        <mxCell id="hbi6dXxwXXTXGjTGPqgK-59" value="Начало" style="ellipse;whiteSpace=wrap;html=1;" vertex="1" parent="1">
          <mxGeometry x="1580" y="150" width="120" height="60" as="geometry" />
        </mxCell>
        <mxCell id="hbi6dXxwXXTXGjTGPqgK-66" style="edgeStyle=orthogonalEdgeStyle;rounded=0;orthogonalLoop=1;jettySize=auto;html=1;entryX=0.5;entryY=0;entryDx=0;entryDy=0;" edge="1" parent="1" source="hbi6dXxwXXTXGjTGPqgK-60" target="hbi6dXxwXXTXGjTGPqgK-63">
          <mxGeometry relative="1" as="geometry" />
        </mxCell>
        <mxCell id="hbi6dXxwXXTXGjTGPqgK-60" value="Выбрать файл для экспорта" style="rounded=1;whiteSpace=wrap;html=1;" vertex="1" parent="1">
          <mxGeometry x="1580" y="230.5" width="120" height="50" as="geometry" />
        </mxCell>
        <mxCell id="hbi6dXxwXXTXGjTGPqgK-61" value="" style="strokeWidth=2;html=1;shape=mxgraph.flowchart.annotation_2;align=left;labelPosition=right;pointerEvents=1;" vertex="1" parent="1">
          <mxGeometry x="1700" y="220" width="50" height="75.5" as="geometry" />
        </mxCell>
        <mxCell id="hbi6dXxwXXTXGjTGPqgK-62" value="Хранение данных:&lt;div&gt;iCalendar&lt;/div&gt;" style="text;html=1;align=center;verticalAlign=middle;whiteSpace=wrap;rounded=0;" vertex="1" parent="1">
          <mxGeometry x="1740" y="225.25" width="60" height="65" as="geometry" />
        </mxCell>
        <mxCell id="hbi6dXxwXXTXGjTGPqgK-68" style="edgeStyle=orthogonalEdgeStyle;rounded=0;orthogonalLoop=1;jettySize=auto;html=1;entryX=0.5;entryY=0;entryDx=0;entryDy=0;" edge="1" parent="1" source="hbi6dXxwXXTXGjTGPqgK-63" target="hbi6dXxwXXTXGjTGPqgK-67">
          <mxGeometry relative="1" as="geometry" />
        </mxCell>
        <mxCell id="hbi6dXxwXXTXGjTGPqgK-63" value="Сохранить резервную копии в файл" style="rounded=1;whiteSpace=wrap;html=1;" vertex="1" parent="1">
          <mxGeometry x="1580" y="298" width="120" height="50" as="geometry" />
        </mxCell>
        <mxCell id="hbi6dXxwXXTXGjTGPqgK-67" value="Конец" style="ellipse;whiteSpace=wrap;html=1;" vertex="1" parent="1">
          <mxGeometry x="1580" y="370" width="120" height="60" as="geometry" />
        </mxCell>
        <mxCell id="hbi6dXxwXXTXGjTGPqgK-69" style="edgeStyle=orthogonalEdgeStyle;rounded=0;orthogonalLoop=1;jettySize=auto;html=1;" edge="1" parent="1" source="hbi6dXxwXXTXGjTGPqgK-70">
          <mxGeometry relative="1" as="geometry">
            <mxPoint x="1890" y="230" as="targetPoint" />
          </mxGeometry>
        </mxCell>
        <mxCell id="hbi6dXxwXXTXGjTGPqgK-70" value="Начало" style="ellipse;whiteSpace=wrap;html=1;" vertex="1" parent="1">
          <mxGeometry x="1830" y="150" width="120" height="60" as="geometry" />
        </mxCell>
        <mxCell id="hbi6dXxwXXTXGjTGPqgK-71" style="edgeStyle=orthogonalEdgeStyle;rounded=0;orthogonalLoop=1;jettySize=auto;html=1;entryX=0.5;entryY=0;entryDx=0;entryDy=0;" edge="1" parent="1" source="hbi6dXxwXXTXGjTGPqgK-72" target="hbi6dXxwXXTXGjTGPqgK-76">
          <mxGeometry relative="1" as="geometry" />
        </mxCell>
        <mxCell id="hbi6dXxwXXTXGjTGPqgK-72" value="Выбрать файл для импорта" style="rounded=1;whiteSpace=wrap;html=1;" vertex="1" parent="1">
          <mxGeometry x="1830" y="230.5" width="120" height="50" as="geometry" />
        </mxCell>
        <mxCell id="hbi6dXxwXXTXGjTGPqgK-73" value="" style="strokeWidth=2;html=1;shape=mxgraph.flowchart.annotation_2;align=left;labelPosition=right;pointerEvents=1;" vertex="1" parent="1">
          <mxGeometry x="1950" y="220" width="50" height="75.5" as="geometry" />
        </mxCell>
        <mxCell id="hbi6dXxwXXTXGjTGPqgK-74" value="Хранение данных:&lt;div&gt;iCalendar&lt;/div&gt;" style="text;html=1;align=center;verticalAlign=middle;whiteSpace=wrap;rounded=0;" vertex="1" parent="1">
          <mxGeometry x="1990" y="225.25" width="60" height="65" as="geometry" />
        </mxCell>
        <mxCell id="hbi6dXxwXXTXGjTGPqgK-75" style="edgeStyle=orthogonalEdgeStyle;rounded=0;orthogonalLoop=1;jettySize=auto;html=1;entryX=0.5;entryY=0;entryDx=0;entryDy=0;" edge="1" parent="1" source="hbi6dXxwXXTXGjTGPqgK-76" target="hbi6dXxwXXTXGjTGPqgK-77">
          <mxGeometry relative="1" as="geometry" />
        </mxCell>
        <mxCell id="hbi6dXxwXXTXGjTGPqgK-76" value="Загрузить данные задач из файла" style="rounded=1;whiteSpace=wrap;html=1;" vertex="1" parent="1">
          <mxGeometry x="1830" y="298" width="120" height="50" as="geometry" />
        </mxCell>
        <mxCell id="hbi6dXxwXXTXGjTGPqgK-77" value="Конец" style="ellipse;whiteSpace=wrap;html=1;" vertex="1" parent="1">
          <mxGeometry x="1830" y="370" width="120" height="60" as="geometry" />
        </mxCell>
        <mxCell id="hbi6dXxwXXTXGjTGPqgK-78" style="edgeStyle=orthogonalEdgeStyle;rounded=0;orthogonalLoop=1;jettySize=auto;html=1;" edge="1" parent="1" source="hbi6dXxwXXTXGjTGPqgK-79">
          <mxGeometry relative="1" as="geometry">
            <mxPoint x="1640" y="530" as="targetPoint" />
          </mxGeometry>
        </mxCell>
        <mxCell id="hbi6dXxwXXTXGjTGPqgK-79" value="Начало" style="ellipse;whiteSpace=wrap;html=1;" vertex="1" parent="1">
          <mxGeometry x="1580" y="450" width="120" height="60" as="geometry" />
        </mxCell>
        <mxCell id="hbi6dXxwXXTXGjTGPqgK-85" value="Конец" style="ellipse;whiteSpace=wrap;html=1;" vertex="1" parent="1">
          <mxGeometry x="1585" y="830" width="120" height="60" as="geometry" />
        </mxCell>
        <mxCell id="hbi6dXxwXXTXGjTGPqgK-86" style="edgeStyle=orthogonalEdgeStyle;rounded=0;orthogonalLoop=1;jettySize=auto;html=1;entryX=0.5;entryY=0;entryDx=0;entryDy=0;" edge="1" parent="1" source="hbi6dXxwXXTXGjTGPqgK-87" target="hbi6dXxwXXTXGjTGPqgK-90">
          <mxGeometry relative="1" as="geometry" />
        </mxCell>
        <mxCell id="hbi6dXxwXXTXGjTGPqgK-87" value="Добавление новой задачи" style="rounded=1;whiteSpace=wrap;html=1;" vertex="1" parent="1">
          <mxGeometry x="1585" y="530" width="120" height="50" as="geometry" />
        </mxCell>
        <mxCell id="hbi6dXxwXXTXGjTGPqgK-88" style="edgeStyle=orthogonalEdgeStyle;rounded=0;orthogonalLoop=1;jettySize=auto;html=1;entryX=0.5;entryY=0;entryDx=0;entryDy=0;" edge="1" parent="1" source="hbi6dXxwXXTXGjTGPqgK-90" target="hbi6dXxwXXTXGjTGPqgK-92">
          <mxGeometry relative="1" as="geometry" />
        </mxCell>
        <mxCell id="hbi6dXxwXXTXGjTGPqgK-89" style="edgeStyle=orthogonalEdgeStyle;rounded=0;orthogonalLoop=1;jettySize=auto;html=1;" edge="1" parent="1" source="hbi6dXxwXXTXGjTGPqgK-90" target="hbi6dXxwXXTXGjTGPqgK-95">
          <mxGeometry relative="1" as="geometry" />
        </mxCell>
        <mxCell id="hbi6dXxwXXTXGjTGPqgK-90" value="Название обязательное, до 100 симв&lt;div&gt;Доп. информация до 500 симв&lt;/div&gt;&lt;div&gt;Дедлайн не является датой в прошлом&lt;/div&gt;" style="rhombus;whiteSpace=wrap;html=1;fontSize=11;" vertex="1" parent="1">
          <mxGeometry x="1560" y="610" width="170" height="90" as="geometry" />
        </mxCell>
        <mxCell id="hbi6dXxwXXTXGjTGPqgK-91" style="edgeStyle=orthogonalEdgeStyle;rounded=0;orthogonalLoop=1;jettySize=auto;html=1;entryX=0.5;entryY=0;entryDx=0;entryDy=0;" edge="1" parent="1" source="hbi6dXxwXXTXGjTGPqgK-92">
          <mxGeometry relative="1" as="geometry">
            <mxPoint x="1645" y="830" as="targetPoint" />
          </mxGeometry>
        </mxCell>
        <mxCell id="hbi6dXxwXXTXGjTGPqgK-92" value="Сохранение задачи в хранилище" style="rounded=1;whiteSpace=wrap;html=1;" vertex="1" parent="1">
          <mxGeometry x="1585" y="730" width="120" height="50" as="geometry" />
        </mxCell>
        <mxCell id="hbi6dXxwXXTXGjTGPqgK-93" value="Да" style="text;html=1;align=center;verticalAlign=middle;whiteSpace=wrap;rounded=0;" vertex="1" parent="1">
          <mxGeometry x="1595" y="700" width="60" height="30" as="geometry" />
        </mxCell>
        <mxCell id="hbi6dXxwXXTXGjTGPqgK-94" style="edgeStyle=orthogonalEdgeStyle;rounded=0;orthogonalLoop=1;jettySize=auto;html=1;" edge="1" parent="1" source="hbi6dXxwXXTXGjTGPqgK-95">
          <mxGeometry relative="1" as="geometry">
            <mxPoint x="1645" y="810" as="targetPoint" />
            <Array as="points">
              <mxPoint x="1795" y="810" />
            </Array>
          </mxGeometry>
        </mxCell>
        <mxCell id="hbi6dXxwXXTXGjTGPqgK-95" value="Показ сообщения об ошибке" style="rounded=1;whiteSpace=wrap;html=1;" vertex="1" parent="1">
          <mxGeometry x="1735" y="730" width="120" height="50" as="geometry" />
        </mxCell>
        <mxCell id="hbi6dXxwXXTXGjTGPqgK-96" value="Нет" style="text;html=1;align=center;verticalAlign=middle;whiteSpace=wrap;rounded=0;" vertex="1" parent="1">
          <mxGeometry x="1725" y="630" width="60" height="30" as="geometry" />
        </mxCell>
      </root>
    </mxGraphModel>
  </diagram>
</mxfile>
